<?xml version="1.0" encoding="UTF-8" standalone="no"?>
<svg
   version="1.1"
   id="mdi-pokeball"
   width="20"
   height="20"
   viewBox="0 0 20 20"
   sodipodi:docname="pokeball_icon.svg"
   inkscape:version="1.1.1 (3bf5ae0d25, 2021-09-20)"
   xmlns:inkscape="http://www.inkscape.org/namespaces/inkscape"
   xmlns:sodipodi="http://sodipodi.sourceforge.net/DTD/sodipodi-0.dtd"
   xmlns="http://www.w3.org/2000/svg"
   xmlns:svg="http://www.w3.org/2000/svg">
  <defs
     id="defs7" />
  <sodipodi:namedview
     id="namedview5"
     pagecolor="#ffffff"
     bordercolor="#666666"
     borderopacity="1.0"
     inkscape:pageshadow="2"
     inkscape:pageopacity="0.0"
     inkscape:pagecheckerboard="0"
     showgrid="false"
     inkscape:zoom="34.333333"
     inkscape:cx="9.3640777"
     inkscape:cy="0.36407767"
     inkscape:window-width="1920"
     inkscape:window-height="1009"
     inkscape:window-x="1912"
     inkscape:window-y="321"
     inkscape:window-maximized="1"
     inkscape:current-layer="mdi-pokeball" />
  <path
    fill="#ffffff"
     d="m 10.019418,-0.03883496 a 10,10 0 0 1 10,9.99999996 10,10 0 0 1 -10,10 10,10 0 0 1 -10.0000005,-10 10,10 0 0 1 10.0000005,-9.99999996 m 0,1.99999996 c -4.0800005,0 -7.4500005,3.05 -7.9400005,7 h 4.07 c 0.44,-1.73 2.0100005,-3 3.8700005,-3 1.86,0 3.43,1.27 3.87,3 h 4.07 c -0.49,-3.95 -3.86,-7 -7.94,-7 m 0,16 c 4.08,0 7.45,-3.05 7.94,-7 h -4.07 c -0.44,1.73 -2.01,3 -3.87,3 -1.86,0 -3.4300005,-1.27 -3.8700005,-3 h -4.07 c 0.49,3.95 3.86,7 7.9400005,7 m 0,-10 a 2,2 0 0 0 -2,2 2,2 0 0 0 2,2 2,2 0 0 0 2,-2 2,2 0 0 0 -2,-2 z"
     id="path2" />
</svg>
